<svg width="118" height="138" viewBox="0 0 118 138" fill="none" xmlns="http://www.w3.org/2000/svg">
<path d="M83.533 83.0432V14.353L59.2759 0L0.353736 33.1139V59.4118L60.1601 25.7946V69.2072L23.0193 90.3218V61.0308L0 74.5131V102.171L23.917 116.171L83.533 83.0432Z" fill="url(#paint0_linear_2910_126)"/>
<path d="M94.1175 53.9141L93.7773 89.0279L93.3419 89.2727L35.1953 122.849L59.2892 137.039L117.858 102.877V67.4372L94.1175 53.9141Z" fill="url(#paint1_linear_2910_126)"/>
<path d="M48.4326 46.1617L34.2837 54.2973V48.2841L48.4326 40.1484V46.1617Z" fill="url(#paint2_linear_2910_126)"/>
<path d="M48.4326 56.7711L34.2837 64.9067V58.8934L48.4326 50.7578V56.7711Z" fill="url(#paint3_linear_2910_126)"/>
<path d="M48.4326 68.443L34.2837 76.5922V70.5789L48.4326 62.4297V68.443Z" fill="url(#paint4_linear_2910_126)"/>
<path d="M93.791 18.1094V38.2444L117.858 52.3389V32.0678L93.791 18.1094Z" fill="#F57F20"/>
<defs>
<linearGradient id="paint0_linear_2910_126" x1="12.5844" y1="115.137" x2="61.058" y2="20.9377" gradientUnits="userSpaceOnUse">
<stop stop-color="#06769D"/>
<stop offset="1" stop-color="#17B1D7"/>
</linearGradient>
<linearGradient id="paint1_linear_2910_126" x1="62.2143" y1="140.671" x2="110.688" y2="46.4723" gradientUnits="userSpaceOnUse">
<stop stop-color="#06769D"/>
<stop offset="1" stop-color="#17B1D7"/>
</linearGradient>
<linearGradient id="paint2_linear_2910_126" x1="7.7" y1="112.634" x2="56.1736" y2="18.4352" gradientUnits="userSpaceOnUse">
<stop stop-color="#06769D"/>
<stop offset="1" stop-color="#17B1D7"/>
</linearGradient>
<linearGradient id="paint3_linear_2910_126" x1="12.0263" y1="114.85" x2="60.4999" y2="20.6505" gradientUnits="userSpaceOnUse">
<stop stop-color="#06769D"/>
<stop offset="1" stop-color="#17B1D7"/>
</linearGradient>
<linearGradient id="paint4_linear_2910_126" x1="16.7744" y1="117.298" x2="65.2479" y2="23.0983" gradientUnits="userSpaceOnUse">
<stop stop-color="#06769D"/>
<stop offset="1" stop-color="#17B1D7"/>
</linearGradient>
</defs>
</svg>
